<?xml version="1.0" standalone="no"?>
<!DOCTYPE svg PUBLIC "-//W3C//DTD SVG 20010904//EN"
 "http://www.w3.org/TR/2001/REC-SVG-20010904/DTD/svg10.dtd">
<svg version="1.0" xmlns="http://www.w3.org/2000/svg"
 width="260.000000pt" height="260.000000pt" viewBox="0 0 260.000000 260.000000"
 preserveAspectRatio="xMidYMid meet">
<metadata>
Created by potrace 1.14, written by Peter Selinger 2001-2017
</metadata>
<g transform="translate(0.000000,260.000000) scale(0.100000,-0.100000)"
fill="#000000" stroke="none">
<path d="M1250 2069 c-60 -13 -88 -71 -55 -115 23 -31 18 -40 -27 -43 -65 -3
-179 -30 -218 -50 -28 -15 -35 -24 -35 -49 0 -26 -8 -36 -65 -73 -73 -49 -168
-143 -196 -195 -10 -19 -23 -34 -27 -34 -24 0 -86 46 -117 88 -19 25 -64 77
-100 115 -65 69 -65 69 -110 64 -57 -7 -151 -36 -169 -53 -11 -10 -9 -15 16
-27 47 -25 109 -99 130 -158 18 -46 39 -148 48 -225 21 -179 108 -321 228
-374 31 -14 48 -30 61 -56 45 -97 156 -197 271 -246 33 -15 107 -41 164 -59
93 -28 120 -32 235 -34 187 -3 231 8 435 102 55 26 118 77 163 132 23 28 49
51 59 51 9 0 41 23 70 50 37 35 92 70 179 113 91 45 139 76 176 113 107 105
145 246 103 375 -51 155 -185 251 -342 244 -78 -3 -141 -30 -187 -78 -19 -21
-44 -37 -55 -37 -11 0 -38 17 -60 38 -22 21 -60 51 -85 67 -48 30 -71 55 -63
67 2 5 1 17 -2 28 -11 34 -94 68 -220 90 -82 15 -89 18 -77 33 5 7 14 27 20
45 10 28 8 35 -11 58 -26 30 -84 44 -137 33z m1006 -437 c94 -48 138 -126 138
-242 1 -154 -89 -260 -277 -326 -22 -8 -55 -14 -74 -14 l-35 0 7 48 c15 101 5
216 -25 294 -15 41 -16 49 -3 67 7 11 15 42 17 69 5 72 32 109 91 125 37 10
121 -1 161 -21z"/>
</g>
</svg>
